<svg xmlns="http://www.w3.org/2000/svg" viewBox="0 0 100 100" width="100" height="100"><circle cx="78" cy="14" r="1" fill="#f1bc19"/><circle cx="50" cy="50" r="38" fill="#f9dbd2"/><circle cx="84" cy="16" r="4" fill="#f1bc19"/><circle cx="14" cy="26" r="2" fill="#ee3e54"/><circle cx="78" cy="77" r="2" fill="#fbcd59"/><circle cx="17" cy="78" r="4" fill="#fbcd59"/><circle cx="24" cy="83" r="2" fill="#ee3e54"/><circle cx="64.483" cy="78.517" r="2.483" fill="#fff"/><circle cx="16" cy="48" r="1" fill="#fff"/><circle cx="86" cy="31" r="1" fill="#f1bc19"/><circle cx="84" cy="45" r="2" fill="#fff"/><circle cx="29" cy="47" r="5.3" fill="#fff"/><path fill="#472b29" d="M29 42.4c2.536 0 4.6 2.063 4.6 4.6s-2.064 4.6-4.6 4.6-4.6-2.063-4.6-4.6 2.064-4.6 4.6-4.6m0-1.4a6 6 0 1 0 0 12 6 6 0 0 0 0-12z"/><circle cx="72" cy="47" r="5.3" fill="#fff"/><path fill="#472b29" d="M72 42.4c2.536 0 4.6 2.063 4.6 4.6s-2.064 4.6-4.6 4.6-4.6-2.063-4.6-4.6 2.064-4.6 4.6-4.6m0-1.4a6 6 0 1 0 0 12 6 6 0 0 0 0-12z"/><ellipse cx="50.5" cy="54" fill="#fff" rx="24.8" ry="16.3"/><path fill="#472b29" d="M50.5 38.4c13.289 0 24.1 6.998 24.1 15.6S63.789 69.6 50.5 69.6 26.4 62.602 26.4 54s10.811-15.6 24.1-15.6m0-1.4C36.417 37 25 44.611 25 54s11.417 17 25.5 17S76 63.389 76 54 64.583 37 50.5 37z"/><path fill="#472b29" d="M61.648 65.891a.25.25 0 0 1-.085-.485c2.902-1.049 5.403-2.518 7.233-4.249a.25.25 0 0 1 .354.01c.095.1.091.259-.01.353-1.88 1.778-4.441 3.284-7.407 4.356a.25.25 0 0 1-.085.015zm9.01-6.225a.25.25 0 0 1-.204-.396c1.192-1.666 1.796-3.44 1.796-5.27 0-1.689-.518-3.335-1.537-4.894a.25.25 0 1 1 .418-.274c1.074 1.641 1.619 3.38 1.619 5.168 0 1.937-.636 3.808-1.889 5.562a.248.248 0 0 1-.203.104zM32.179 46.522a.25.25 0 0 1-.172-.431c1.88-1.778 4.441-3.284 7.408-4.356a.25.25 0 0 1 .17.47c-2.902 1.049-5.404 2.518-7.234 4.249a.251.251 0 0 1-.172.068zm-1.953 12.369a.25.25 0 0 1-.209-.113c-1.074-1.641-1.619-3.38-1.619-5.168 0-1.936.636-3.807 1.889-5.562a.25.25 0 0 1 .407.291c-1.192 1.668-1.796 3.441-1.796 5.271 0 1.689.517 3.335 1.537 4.894a.25.25 0 0 1-.209.387z"/><circle cx="69.5" cy="29.5" r="3.8" fill="#fff"/><path fill="#472b29" d="M69.5 26.4c1.709 0 3.1 1.391 3.1 3.1s-1.391 3.1-3.1 3.1-3.1-1.391-3.1-3.1 1.391-3.1 3.1-3.1m0-1.4a4.5 4.5 0 1 0 0 9 4.5 4.5 0 0 0 0-9z"/><circle cx="42" cy="51" r="3.5" fill="#ee3e54"/><path fill="#472b29" d="M42 55c-2.206 0-4-1.794-4-4s1.794-4 4-4 4 1.794 4 4-1.794 4-4 4zm0-7c-1.654 0-3 1.346-3 3s1.346 3 3 3 3-1.346 3-3-1.346-3-3-3z"/><circle cx="59" cy="51" r="3.5" fill="#ee3e54"/><path fill="#472b29" d="M59 55c-2.206 0-4-1.794-4-4s1.794-4 4-4 4 1.794 4 4-1.794 4-4 4zm0-7c-1.654 0-3 1.346-3 3s1.346 3 3 3 3-1.346 3-3-1.346-3-3-3zm-8.5-10a.5.5 0 0 1-.474-.658l4-12a.5.5 0 0 1 .604-.325l11.25 3a.499.499 0 1 1-.258.966l-10.796-2.879-3.851 11.554A.502.502 0 0 1 50.5 38zm-.063 26.363c-2.78 0-5.538-.812-8.198-2.436a.5.5 0 0 1 .522-.853c5.053 3.086 10.265 3.084 15.484-.004a.5.5 0 1 1 .51.861c-2.742 1.621-5.541 2.432-8.318 2.432z"/></svg>